<svg width="152" height="152" fill="none" xmlns="http://www.w3.org/2000/svg"><path fill="#EE3643" d="M0 0h152v152H0z"/><path fill-rule="evenodd" clip-rule="evenodd" d="M35.9 35c-2.7 0-2.9 2.8-2.9 2.8v21.3c0 4 4 3.9 4 3.9h12.4c2.6 0 2.2 2 2.2 2s-3.4 18-3.8 21c-.4 3-2.6 5-2.6 5l-4 2.3c-1.3.6-1.3 3.7-1.3 3.7H83v-1.7c0-2-9.5-4.3-13-4.7-3.7-.4-3-2.8-3-2.8l1.5-10.7h4.2l1.5-10.8h-4.1l.5-3.3h11.8c8-.8 13.6-6.3 13.6-6.3V40.2C89.7 35.7 79.7 35 79.7 35H36Zm79.6 10h18.6c.8 0 1.9 1.7 1.9 3.5s-1.1 3.5-2 3.5h-18.5c-.8 3-2.8 5-5.1 5H100V40h10.4c2.3 0 4.3 2 5.1 5Zm-72.9 74c-2.6 0-2.6-2.8-2.6-2.8V101h43v15.3c0 2.4-2.8 2.7-2.8 2.7H42.6ZM82 42.5c0-.8-.6-1.5-1.4-1.5H39.4c-.8 0-1.4.7-1.4 1.5s.6 1.5 1.4 1.5h41.2c.8 0 1.4-.7 1.4-1.5Z" fill="#fff"/></svg>