<svg width="44" height="44" viewBox="0 0 44 44" fill="none" xmlns="http://www.w3.org/2000/svg">
<path fill-rule="evenodd" clip-rule="evenodd" d="M22.1627 1.4839C33.6533 1.4839 42.9683 10.5873 42.9683 21.8169C42.9683 33.0461 33.6533 42.1494 22.1627 42.1494C10.6721 42.1494 1.35714 33.0461 1.35714 21.8169C1.35714 10.5873 10.6721 1.4839 22.1627 1.4839Z" fill="#EE3643"/>
<path d="M24.5403 25.7284C25.4609 25.4387 26.6395 27.6409 27.8943 28.4837C28.836 29.1221 29.5573 28.9843 29.5573 28.9843L32.9017 28.9374C32.9017 28.9374 34.6495 28.8324 33.8232 27.4805C33.7549 27.368 33.3389 26.4784 31.334 24.6474C29.2376 22.7321 29.5217 23.0424 32.0456 19.7312C33.5835 17.7127 34.1988 16.4799 34.0062 15.9549C33.8213 15.4496 32.6918 15.5809 32.6918 15.5809L28.9237 15.6062C28.5568 15.6071 28.2458 15.7177 28.1042 16.089C28.1013 16.0927 27.5062 17.6509 26.7127 18.9755C25.0362 21.7777 24.3669 21.9268 24.0896 21.7515C23.4531 21.3455 23.6139 20.123 23.6139 19.254C23.6139 16.538 24.0299 15.4055 22.7992 15.113C22.388 15.0155 22.0876 14.9518 21.0389 14.9424C19.6985 14.9227 18.5603 14.9424 17.9151 15.2509C17.4866 15.4599 17.1582 15.9184 17.3575 15.9446C17.6079 15.9774 18.1693 16.0946 18.4697 16.494C18.8559 17.0115 18.8443 18.1712 18.8443 18.1712C18.8443 18.1712 19.0649 21.369 18.3243 21.7655C17.8159 22.0374 17.1206 21.4824 15.6252 18.938C14.8615 17.6368 14.2847 16.1987 14.2847 16.1987C14.2847 16.1987 14.173 15.9315 13.9708 15.7852C13.73 15.6118 13.393 15.5565 13.393 15.5565L9.81656 15.579C9.81656 15.579 9.27923 15.594 9.08182 15.8246C8.90656 16.029 9.06738 16.4509 9.06738 16.4509C9.06738 16.4509 11.8686 22.9018 15.0406 26.1512C17.9488 29.1343 21.2537 28.9365 21.2537 28.9365H22.7511C22.7511 28.9365 23.2027 28.8859 23.4338 28.644C23.6495 28.419 23.6399 27.9962 23.6399 27.9962C23.6399 27.9962 23.61 26.019 24.5403 25.7284Z" fill="white"/>
</svg>
