<svg width="138" height="23" viewBox="0 0 138 23" fill="none" xmlns="http://www.w3.org/2000/svg">
<path fill-rule="evenodd" clip-rule="evenodd" d="M132.694 3.39708V22.2971H129.994V3.39708H125.194V1.29708H137.494V3.39708H132.694ZM122.299 14.5121C121.829 15.1021 121.239 15.5221 120.529 15.7721C119.819 16.0221 118.974 16.1471 117.994 16.1471C117.534 16.1471 117.014 16.1171 116.434 16.0571C115.854 15.9971 115.374 15.9271 114.994 15.8471V22.2971H112.294V1.59707C113.054 1.37707 113.819 1.22207 114.589 1.13207C115.359 1.04207 116.194 0.99707 117.094 0.99707C118.294 0.99707 119.314 1.12207 120.154 1.37207C120.994 1.62207 121.674 2.03707 122.194 2.61707C122.714 3.19707 123.094 3.96707 123.334 4.92707C123.574 5.88707 123.694 7.07707 123.694 8.49707C123.694 9.95707 123.579 11.1771 123.349 12.1571C123.119 13.1371 122.769 13.9221 122.299 14.5121ZM120.769 5.79706C120.619 5.07706 120.384 4.50706 120.064 4.08706C119.744 3.66706 119.339 3.37206 118.849 3.20206C118.359 3.03206 117.774 2.94706 117.094 2.94706H114.994V14.0471H117.094C117.774 14.0471 118.359 13.9621 118.849 13.7921C119.339 13.6221 119.744 13.3271 120.064 12.9071C120.384 12.4871 120.619 11.9171 120.769 11.1971C120.919 10.4771 120.994 9.57706 120.994 8.49706C120.994 7.41706 120.919 6.51706 120.769 5.79706ZM105.544 16.8971H99.544L98.194 22.2971H95.494L100.594 1.29708H104.494L109.594 22.2971H106.894L105.544 16.8971ZM102.604 4.29706H102.484L99.994 14.7971H105.094L102.604 4.29706ZM89.644 6.69708H89.494L85.144 19.5971H82.444L78.094 6.69708H77.944L77.044 22.2971H74.344L75.544 1.29708H78.844L83.734 15.6971H83.854L88.744 1.29708H92.044L93.244 22.2971H90.544L89.644 6.69708ZM69.484 20.3471C68.924 21.1671 68.249 21.7471 67.459 22.0871C66.669 22.4271 65.764 22.5971 64.744 22.5971C63.724 22.5971 62.819 22.4271 62.029 22.0871C61.239 21.7471 60.564 21.1671 60.004 20.3471C59.444 19.5271 59.019 18.4221 58.729 17.0321C58.439 15.6421 58.294 13.8971 58.294 11.7971C58.294 9.69707 58.439 7.95207 58.729 6.56207C59.019 5.17207 59.444 4.06707 60.004 3.24707C60.564 2.42707 61.239 1.84707 62.029 1.50707C62.819 1.16707 63.724 0.99707 64.744 0.99707C65.764 0.99707 66.669 1.16707 67.459 1.50707C68.249 1.84707 68.924 2.42707 69.484 3.24707C70.044 4.06707 70.469 5.17207 70.759 6.56207C71.049 7.95207 71.194 9.69707 71.194 11.7971C71.194 13.8971 71.049 15.6421 70.759 17.0321C70.469 18.4221 70.044 19.5271 69.484 20.3471ZM68.179 7.35707C67.969 6.19707 67.694 5.27707 67.354 4.59707C67.014 3.91707 66.614 3.44707 66.154 3.18707C65.694 2.92707 65.224 2.79707 64.744 2.79707C64.264 2.79707 63.794 2.92707 63.334 3.18707C62.874 3.44707 62.474 3.91707 62.134 4.59707C61.794 5.27707 61.519 6.19707 61.309 7.35707C61.099 8.51707 60.994 9.99707 60.994 11.7971C60.994 13.5971 61.099 15.0771 61.309 16.2371C61.519 17.3971 61.794 18.3171 62.134 18.9971C62.474 19.6771 62.874 20.1471 63.334 20.4071C63.794 20.6671 64.264 20.7971 64.744 20.7971C65.224 20.7971 65.694 20.6671 66.154 20.4071C66.614 20.1471 67.014 19.6771 67.354 18.9971C67.694 18.3171 67.969 17.3971 68.179 16.2371C68.389 15.0771 68.494 13.5971 68.494 11.7971C68.494 9.99707 68.389 8.51707 68.179 7.35707ZM51.994 12.6971H45.694V22.2971H42.994V1.29708H45.694V10.5971H51.994V1.29708H54.694V22.2971H51.994V12.6971ZM37.745 22.2971L33.995 13.2971L30.245 22.2971H27.545L32.045 11.4971L27.995 1.29708H30.695L33.995 9.69708L37.295 1.29708H39.995L35.945 11.4971L40.445 22.2971H37.745ZM15.695 1.29708H25.895V3.39708H18.395V10.2971H24.995V12.3971H18.395V20.1971H25.895V22.2971H15.695V1.29708ZM8.495 22.2971H5.795V3.39708H0.994995V1.29708H13.295V3.39708H8.495V22.2971Z" fill="white"/>
</svg>
